<svg fill="#fff" xmlns="http://www.w3.org/2000/svg"  viewBox="0 0 80 80" width="80px" height="80px"><path d="M 43.886719 11.71875 L 39.28125 25.023438 C 32.496094 25.148438 26.308594 27.003906 21.429688 30.027344 C 20.101563 28.828125 18.425781 28 16.5 28 C 12.371094 28 9 31.371094 9 35.5 C 9 37.863281 10.210938 39.859375 11.921875 41.234375 C 11.351563 42.917969 11 44.675781 11 46.5 C 11 52.539063 14.347656 57.960938 19.609375 61.8125 C 24.871094 65.660156 32.070313 68 40 68 C 47.929688 68 55.128906 65.660156 60.390625 61.8125 C 65.652344 57.960938 69 52.539063 69 46.5 C 69 45.65625 68.917969 44.832031 68.78125 44.019531 L 68.777344 43.804688 L 68.753906 43.707031 L 68.71875 43.65625 C 68.558594 42.832031 68.34375 42.027344 68.078125 41.234375 C 69.789063 39.859375 71 37.863281 71 35.5 C 71 31.371094 67.628906 28 63.5 28 C 61.574219 28 59.898438 28.828125 58.570313 30.027344 C 53.851563 27.101563 47.910156 25.277344 41.390625 25.046875 L 45.113281 14.28125 L 53.082031 17.113281 C 53.03125 17.402344 53 17.699219 53 18 C 53 20.75 55.25 23 58 23 C 60.75 23 63 20.75 63 18 C 63 15.25 60.75 13 58 13 C 56.261719 13 54.726563 13.902344 53.828125 15.257813 Z M 58 15 C 59.667969 15 61 16.332031 61 18 C 61 19.667969 59.667969 21 58 21 C 56.332031 21 55 19.667969 55 18 C 55 16.332031 56.332031 15 58 15 Z M 40 27 C 46.976563 27 53.320313 28.921875 58.089844 32.035156 L 58.8125 32.503906 L 59.386719 31.859375 C 60.394531 30.71875 61.855469 30 63.5 30 C 66.550781 30 69 32.449219 69 35.5 C 69 37.0625 68.34375 38.453125 67.300781 39.453125 L 66.796875 39.027344 L 65.925781 39.230469 L 65.5625 40.046875 L 65.640625 40.390625 L 65.683594 40.484375 L 65.777344 40.5625 L 65.746094 40.582031 L 66.035156 41.34375 C 66.664063 42.992188 67 44.714844 67 46.5 C 67 51.804688 64.078125 56.632813 59.207031 60.199219 C 54.339844 63.761719 47.535156 66 40 66 C 32.464844 66 25.660156 63.761719 20.792969 60.199219 C 15.921875 56.632813 13 51.804688 13 46.5 C 13 44.714844 13.335938 42.992188 13.964844 41.34375 L 14.21875 40.675781 L 14.316406 40.527344 L 14.359375 40.4375 L 14.3125 39.542969 L 13.566406 39.042969 L 12.722656 39.339844 L 12.667969 39.421875 C 11.640625 38.425781 11 37.046875 11 35.5 C 11 32.449219 13.449219 30 16.5 30 C 18.144531 30 19.605469 30.71875 20.613281 31.859375 L 21.1875 32.503906 L 21.910156 32.035156 C 26.679688 28.921875 33.023438 27 40 27 Z M 61.4375 32.527344 L 60.746094 33.09375 L 60.785156 33.988281 L 61.011719 34.261719 L 61.046875 34.292969 L 61.070313 34.3125 L 61.078125 34.300781 L 61.90625 34.550781 L 62.625 34.019531 L 62.628906 33.125 L 62.421875 32.839844 L 62.40625 32.828125 L 62.390625 32.808594 L 62.371094 32.792969 L 62.308594 32.738281 Z M 17.917969 32.605469 L 17.625 32.800781 L 17.550781 32.871094 L 17.253906 33.71875 L 17.753906 34.460938 L 18.652344 34.503906 L 18.941406 34.308594 L 19.015625 34.238281 L 19.3125 33.390625 L 18.8125 32.648438 Z M 64.4375 35.5 L 63.640625 35.90625 L 63.488281 36.792969 L 63.652344 37.105469 L 63.710938 37.183594 L 64.515625 37.578125 L 65.3125 37.171875 L 65.464844 36.285156 L 65.300781 35.972656 L 65.242188 35.894531 Z M 15.863281 35.578125 L 14.976563 35.699219 L 14.722656 35.945313 L 14.667969 36.027344 L 14.53125 36.910156 L 15.15625 37.550781 L 16.046875 37.433594 L 16.296875 37.1875 L 16.355469 37.105469 L 16.492188 36.21875 Z M 29 38 C 26.25 38 24 40.25 24 43 C 24 45.75 26.25 48 29 48 C 31.75 48 34 45.75 34 43 C 34 40.25 31.75 38 29 38 Z M 51 38 C 48.25 38 46 40.25 46 43 C 46 45.75 48.25 48 51 48 C 53.75 48 56 45.75 56 43 C 56 40.25 53.75 38 51 38 Z M 29 40 C 30.667969 40 32 41.332031 32 43 C 32 44.667969 30.667969 46 29 46 C 27.332031 46 26 44.667969 26 43 C 26 41.332031 27.332031 40 29 40 Z M 51 40 C 52.667969 40 54 41.332031 54 43 C 54 44.667969 52.667969 46 51 46 C 49.332031 46 48 44.667969 48 43 C 48 41.332031 49.332031 40 51 40 Z M 29 42 C 28.449219 42 28 42.449219 28 43 C 28 43.550781 28.449219 44 29 44 C 29.550781 44 30 43.550781 30 43 C 30 42.449219 29.550781 42 29 42 Z M 51 42 C 50.449219 42 50 42.449219 50 43 C 50 43.550781 50.449219 44 51 44 C 51.550781 44 52 43.550781 52 43 C 52 42.449219 51.550781 42 51 42 Z M 28 53.988281 C 27.613281 53.984375 27.257813 54.207031 27.085938 54.554688 C 26.917969 54.90625 26.972656 55.324219 27.21875 55.625 C 27.21875 55.625 31.582031 61 40 61 C 48.417969 61 52.78125 55.625 52.78125 55.625 C 53.125 55.195313 53.058594 54.5625 52.625 54.21875 C 52.195313 53.875 51.5625 53.941406 51.21875 54.375 C 51.21875 54.375 47.582031 59 40 59 C 32.417969 59 28.78125 54.375 28.78125 54.375 C 28.59375 54.132813 28.308594 53.992188 28 53.988281 Z"/></svg>